<svg id="Capa_1" data-name="Capa 1" xmlns="http://www.w3.org/2000/svg" viewBox="0 0 28 22"><defs><style>.cls-1{fill:#069;}</style></defs><title>envelope</title><path class="cls-1" d="M28,11.09V23.5A2.5,2.5,0,0,1,25.5,26H2.5A2.5,2.5,0,0,1,0,23.5V11.09a8.54,8.54,0,0,0,1.58,1.36C4.17,14.22,6.8,16,9.34,17.84,10.66,18.81,12.28,20,14,20h0c1.7,0,3.32-1.19,4.64-2.16,2.54-1.84,5.17-3.62,7.78-5.39A9.12,9.12,0,0,0,28,11.09ZM28,6.5a5.65,5.65,0,0,1-2.67,4.28c-2.44,1.69-4.89,3.38-7.32,5.08-1,.7-2.73,2.14-4,2.14h0c-1.26,0-3-1.44-4-2.14-2.42-1.7-4.87-3.39-7.29-5.08C1.58,10,0,8.27,0,6.84S.83,4,2.5,4h23A2.51,2.51,0,0,1,28,6.5Z" transform="translate(0 -4)"/></svg>