<svg id="Capa_1" data-name="Capa 1" xmlns="http://www.w3.org/2000/svg" viewBox="0 0 28 28"><defs><style>.cls-1{fill:#069;}</style></defs><title>fax</title><path class="cls-1" d="M4.5,6A2.5,2.5,0,0,1,7,8.5v17A2.5,2.5,0,0,1,4.5,28h-2A2.5,2.5,0,0,1,0,25.5V8.5A2.5,2.5,0,0,1,2.5,6ZM26,8.55A4,4,0,0,1,28,12V24a4,4,0,0,1-4,4H10.5A2.5,2.5,0,0,1,8,25.5V1.5A1.5,1.5,0,0,1,9.5,0H20a4.17,4.17,0,0,1,2.56,1.06l2.38,2.38A4.2,4.2,0,0,1,26,6V8.55ZM14.5,24V22a.5.5,0,0,0-.5-.5H12a.5.5,0,0,0-.5.5v2a.5.5,0,0,0,.5.5h2A.5.5,0,0,0,14.5,24Zm0-4V18a.5.5,0,0,0-.5-.5H12a.5.5,0,0,0-.5.5v2a.5.5,0,0,0,.5.5h2A.5.5,0,0,0,14.5,20Zm0-4V14a.5.5,0,0,0-.5-.5H12a.5.5,0,0,0-.5.5v2a.5.5,0,0,0,.5.5h2A.5.5,0,0,0,14.5,16Zm4,8V22a.5.5,0,0,0-.5-.5H16a.5.5,0,0,0-.5.5v2a.5.5,0,0,0,.5.5h2A.5.5,0,0,0,18.5,24Zm0-4V18a.5.5,0,0,0-.5-.5H16a.5.5,0,0,0-.5.5v2a.5.5,0,0,0,.5.5h2A.5.5,0,0,0,18.5,20Zm0-4V14a.5.5,0,0,0-.5-.5H16a.5.5,0,0,0-.5.5v2a.5.5,0,0,0,.5.5h2A.5.5,0,0,0,18.5,16Zm4,8V22a.5.5,0,0,0-.5-.5H20a.5.5,0,0,0-.5.5v2a.5.5,0,0,0,.5.5h2A.5.5,0,0,0,22.5,24Zm0-4V18a.5.5,0,0,0-.5-.5H20a.5.5,0,0,0-.5.5v2a.5.5,0,0,0,.5.5h2A.5.5,0,0,0,22.5,20Zm0-4V14a.5.5,0,0,0-.5-.5H20a.5.5,0,0,0-.5.5v2a.5.5,0,0,0,.5.5h2A.5.5,0,0,0,22.5,16ZM24,10V6H21.5A1.5,1.5,0,0,1,20,4.5V2H10v8Z"/></svg>