<?xml version="1.0" encoding="utf-8"?>
<!-- Generator: Adobe Illustrator 23.0.6, SVG Export Plug-In . SVG Version: 6.00 Build 0)  -->
<svg version="1.1" id="Capa_1" xmlns="http://www.w3.org/2000/svg" xmlns:xlink="http://www.w3.org/1999/xlink" x="0px" y="0px"
	 viewBox="0 0 239.2 49.9" style="enable-background:new 0 0 239.2 49.9;" xml:space="preserve">
<style type="text/css">
	.st0{fill:#006699;}
</style>
<g>
	<path class="st0" d="M19,23.8v12.9h-4.7v12.5H0V19.4C0,13.8,1.7,9.2,5.2,5.5C8.6,1.8,13,0,18.2,0C24,0,28.9,2.5,32.8,7.5L21.1,16
		c-0.7-1.8-1.8-2.7-3.5-2.7c-2.2,0-3.3,1.5-3.3,4.6v5.9H19z"/>
	<path class="st0" d="M48.3,1.2h13.1v29.2c0,5.4-1.4,9.7-4.2,13.1c-1.6,1.9-3.7,3.5-6.2,4.6s-5.1,1.7-7.7,1.7
		c-5.2,0-9.6-1.8-13.2-5.3s-5.4-7.8-5.4-12.9c0-4.9,1.8-9.2,5.3-12.8c3.6-3.6,7.8-5.4,12.7-5.4c0.8,0,1.9,0.1,3.5,0.2v14.5
		c-1.1-0.8-2.2-1.3-3.2-1.3c-1.4,0-2.5,0.5-3.5,1.5c-1,1-1.5,2.2-1.5,3.6c0,1.4,0.5,2.5,1.5,3.5c1,1,2.2,1.5,3.6,1.5
		c3.4,0,5.1-2.3,5.1-7V1.2z"/>
	<path class="st0" d="M72.7,40.9v-6.3c1.4,0,2.2-0.6,2.2-1.7c0-1-0.6-1.5-1.7-1.5c-1.1,0-1.7,0.7-1.7,2.1v15.7h-7.1V34.2
		c0-1.5,0.2-2.8,0.5-3.8s0.8-1.9,1.6-2.8c0.8-0.9,1.9-1.7,3.2-2.3s2.6-0.8,3.9-0.8c2.4,0,4.5,0.8,6.1,2.5s2.5,3.7,2.5,6.1
		c0,2.4-0.7,4.3-2.2,5.7c-1.4,1.3-3.4,2-6.2,2L72.7,40.9z"/>
	<path class="st0" d="M94.3,31.5v7c-0.5-0.3-0.9-0.4-1.2-0.4c-1.2,0-1.8,0.9-1.8,2.7v8.3h-6.6v-9.6c0-2.5,0.7-4.5,2.1-6.1
		s3.2-2.3,5.5-2.3C92.8,31.3,93.4,31.4,94.3,31.5z"/>
	<path class="st0" d="M104.5,31.3c2.5,0,4.6,0.9,6.4,2.7s2.7,3.9,2.7,6.4c0,2.5-0.9,4.7-2.7,6.5s-4,2.7-6.5,2.7s-4.7-0.9-6.5-2.7
		s-2.7-3.9-2.7-6.5c0-2.6,0.9-4.7,2.7-6.5S101.9,31.3,104.5,31.3z M104.3,37.8c-0.7,0-1.3,0.3-1.8,0.8s-0.7,1.1-0.7,1.9
		c0,0.7,0.2,1.3,0.7,1.9s1.1,0.8,1.8,0.8c0.7,0,1.3-0.3,1.8-0.8s0.7-1.1,0.7-1.9c0-0.7-0.2-1.4-0.7-1.9S105,37.8,104.3,37.8z"/>
	<path class="st0" d="M127.1,41.1l6.5-0.2c-0.2,2.5-1.1,4.6-2.8,6.2s-3.8,2.4-6.2,2.4c-2.6,0-4.8-0.9-6.5-2.7s-2.7-4-2.7-6.6
		c0-2.5,0.9-4.6,2.7-6.3s3.9-2.6,6.5-2.6c2.2,0,4.1,0.7,5.8,2.1s2.7,3.1,3.1,5.3l-6.7,0.2c-0.6-0.8-1.3-1.1-2.2-1.1
		c-0.8,0-1.4,0.2-1.8,0.7s-0.7,1.1-0.7,1.9c0,0.8,0.3,1.4,0.8,1.9s1.1,0.8,1.9,0.8C125.8,43.1,126.6,42.4,127.1,41.1z"/>
	<path class="st0" d="M136.4,31.9h6.6v9.9c0,1,0.4,1.5,1.2,1.5c0.8,0,1.2-0.5,1.2-1.5v-9.9h6.6v9.8c0,2.3-0.8,4.2-2.3,5.8
		s-3.4,2.3-5.6,2.3c-2.5,0-4.5-0.9-6-2.7c-1.2-1.4-1.8-3.4-1.8-5.9V31.9z"/>
	<path class="st0" d="M165.5,31.5v7c-0.5-0.3-0.9-0.4-1.2-0.4c-1.2,0-1.8,0.9-1.8,2.7v8.3h-6.6v-9.6c0-2.5,0.7-4.5,2.1-6.1
		s3.2-2.3,5.5-2.3C164,31.3,164.7,31.4,165.5,31.5z"/>
	<path class="st0" d="M177.2,42.6v6.8c-0.5,0.1-1,0.1-1.5,0.1c-2.6,0-4.8-0.9-6.6-2.6s-2.6-3.9-2.6-6.5c0-2.5,0.9-4.7,2.7-6.5
		s3.9-2.7,6.5-2.7c2.8,0,5.1,0.8,6.7,2.5s2.5,3.9,2.5,6.8v8.6h-6.6v-8.1c0-0.9-0.2-1.7-0.7-2.2s-1.1-0.8-1.8-0.8
		c-0.7,0-1.3,0.3-1.8,0.8s-0.8,1.1-0.8,1.8c0,0.7,0.2,1.3,0.7,1.8s1,0.7,1.7,0.7C176.2,43.1,176.7,42.9,177.2,42.6z"/>
	<path class="st0" d="M199.4,25.2h6.6v14.6c0,2.7-0.7,4.9-2.1,6.6c-0.8,1-1.8,1.7-3.1,2.3s-2.5,0.9-3.8,0.9c-2.6,0-4.8-0.9-6.6-2.6
		s-2.7-3.9-2.7-6.5c0-2.5,0.9-4.6,2.7-6.4s3.9-2.7,6.3-2.7c0.4,0,1,0,1.8,0.1v7.2c-0.5-0.4-1.1-0.6-1.6-0.6c-0.7,0-1.3,0.2-1.8,0.7
		s-0.7,1.1-0.7,1.8c0,0.7,0.3,1.3,0.8,1.7s1.1,0.7,1.8,0.7c1.7,0,2.5-1.2,2.5-3.5V25.2z"/>
	<path class="st0" d="M217.8,31.3c2.5,0,4.6,0.9,6.4,2.7s2.7,3.9,2.7,6.4c0,2.5-0.9,4.7-2.7,6.5s-4,2.7-6.5,2.7s-4.7-0.9-6.5-2.7
		s-2.7-3.9-2.7-6.5c0-2.6,0.9-4.7,2.7-6.5S215.1,31.3,217.8,31.3z M217.6,37.8c-0.7,0-1.3,0.3-1.8,0.8s-0.7,1.1-0.7,1.9
		c0,0.7,0.2,1.3,0.7,1.9s1.1,0.8,1.8,0.8c0.7,0,1.3-0.3,1.8-0.8s0.7-1.1,0.7-1.9c0-0.7-0.2-1.4-0.7-1.9S218.3,37.8,217.6,37.8z"/>
	<path class="st0" d="M239.2,31.5v7c-0.5-0.3-0.9-0.4-1.2-0.4c-1.2,0-1.8,0.9-1.8,2.7v8.3h-6.6v-9.6c0-2.5,0.7-4.5,2.1-6.1
		s3.2-2.3,5.5-2.3C237.7,31.3,238.4,31.4,239.2,31.5z"/>
</g>
<g>
</g>
<g>
</g>
<g>
</g>
<g>
</g>
<g>
</g>
<g>
</g>
<g>
</g>
<g>
</g>
<g>
</g>
<g>
</g>
<g>
</g>
<g>
</g>
<g>
</g>
<g>
</g>
<g>
</g>
</svg>
