<svg id="Capa_1" data-name="Capa 1" xmlns="http://www.w3.org/2000/svg" viewBox="0 0 22 22"><defs><style>.cls-1{fill:#069;}</style></defs><title>phone</title><path class="cls-1" d="M22,19.38a7.1,7.1,0,0,1-.48,2.17,4.17,4.17,0,0,1-1.91,1.65,6,6,0,0,1-2.91.8,11.92,11.92,0,0,1-4.09-1.08,14.49,14.49,0,0,1-2.73-1.29,26.52,26.52,0,0,1-7.5-7.5,14.62,14.62,0,0,1-1.3-2.74A12.15,12.15,0,0,1,0,7.3,6,6,0,0,1,.8,4.39a4.09,4.09,0,0,1,1.65-1.9A6.84,6.84,0,0,1,4.63,2a.7.7,0,0,1,.32,0c.33.11.68.87.83,1.19.5.89,1,1.79,1.5,2.67.25.4.72.9.72,1.39,0,1-2.83,2.34-2.83,3.19a3.31,3.31,0,0,0,.61,1.34,15.61,15.61,0,0,0,6.39,6.39,3.41,3.41,0,0,0,1.35.61c.84,0,2.23-2.83,3.18-2.83.49,0,1,.47,1.4.72.87.52,1.78,1,2.67,1.5.31.16,1.08.5,1.19.83a.93.93,0,0,1,0,.33Z" transform="translate(0 -2)"/></svg>