<svg id="Capa_1" data-name="Capa 1" xmlns="http://www.w3.org/2000/svg" viewBox="0 0 24 24.19"><defs><style>.cls-1{fill:#069;}</style></defs><title>whatsapp</title><path class="cls-1" d="M15.39,15.22a14.94,14.94,0,0,1,2.92,1.52.63.63,0,0,1,0,.23,3.48,3.48,0,0,1-.26,1.19,3.27,3.27,0,0,1-2.71,1.43,9.89,9.89,0,0,1-3-1,12,12,0,0,1-5-4.73,5.43,5.43,0,0,1-1.11-3v-.13A3.25,3.25,0,0,1,7.48,8.27a1.16,1.16,0,0,1,.82-.35c.18,0,.37,0,.57,0,.43,0,.5.12.66.53s.91,2.39.91,2.55c0,.59-1.08,1.26-1.08,1.62a.46.46,0,0,0,.08.24A8.06,8.06,0,0,0,11,15.05a9.08,9.08,0,0,0,2.36,1.57.62.62,0,0,0,.34.11c.47,0,1.25-1.51,1.66-1.51ZM12.22,23.5a9.83,9.83,0,1,0-7.94-4.06L3.05,23.08l3.78-1.2a9.91,9.91,0,0,0,5.39,1.62Zm0-21.59A11.78,11.78,0,1,1,6.52,24L0,26.09l2.12-6.33A11.79,11.79,0,0,1,12.22,1.91Z" transform="translate(0 -1.91)"/></svg>